<svg xmlns="http://www.w3.org/2000/svg" viewBox="0 0 1200 800" width="1200" height="800" role="img">
<defs>
  <linearGradient id="bg" x1="0" y1="0" x2="1" y2="1"><stop offset="0" stop-color="#11111b"/><stop offset="1" stop-color="#07070c"/></linearGradient>
  <radialGradient id="g1" cx="0.467" cy="0.600" r="0.62"><stop offset="0" stop-color="#38BDF8" stop-opacity="0.42"/><stop offset="0.55" stop-color="#38BDF8" stop-opacity="0.10"/><stop offset="1" stop-color="#38BDF8" stop-opacity="0"/></radialGradient>
  <radialGradient id="g2" cx="0.08" cy="0.05" r="0.6"><stop offset="0" stop-color="#38BDF8" stop-opacity="0.28"/><stop offset="1" stop-color="#38BDF8" stop-opacity="0"/></radialGradient>
  <pattern id="dots" width="28" height="28" patternUnits="userSpaceOnUse"><circle cx="2" cy="2" r="1.1" fill="#ffffff" fill-opacity="0.07"/></pattern>
  <linearGradient id="glass" x1="0" y1="0" x2="0" y2="1"><stop offset="0" stop-color="#ffffff" stop-opacity="0.09"/><stop offset="1" stop-color="#ffffff" stop-opacity="0.03"/></linearGradient>
  <filter id="soft" x="-30%" y="-30%" width="160%" height="160%"><feGaussianBlur stdDeviation="9"/></filter>
</defs>
<rect width="1200" height="800" fill="url(#bg)"/>
<rect width="1200" height="800" fill="url(#dots)"/>
<rect width="1200" height="800" fill="url(#g2)"/>
<rect width="1200" height="800" fill="url(#g1)"/>
<rect x="318" y="262" width="330" height="330" rx="22" fill="#0b0b13" fill-opacity="0.6" stroke="#38BDF8" stroke-opacity="0.25" stroke-width="1.4"/>
<rect x="338" y="280" width="330" height="330" rx="22" fill="#0b0b13" fill-opacity="0.6" stroke="#38BDF8" stroke-opacity="0.35" stroke-width="1.4"/>
<rect x="358" y="298" width="330" height="330" rx="22" fill="#0b0b13" fill-opacity="0.6" stroke="#38BDF8" stroke-opacity="0.45" stroke-width="1.4"/>
<rect x="378" y="316" width="330" height="330" rx="22" fill="#0b0b13" fill-opacity="0.6" stroke="#38BDF8" stroke-opacity="0.55" stroke-width="1.4"/>
<rect x="398" y="334" width="330" height="330" rx="22" fill="#0b0b13" fill-opacity="0.95" stroke="#38BDF8" stroke-opacity="0.9" stroke-width="2.2"/>
<path d="M498 352 C 494 420, 458 454, 482 490 C 502 518, 548 484, 564 502 C 588 524, 630 506, 630 474 C 630 434, 604 412, 604 352" fill="#ffffff" fill-opacity="0.10" stroke="#ffffff" stroke-opacity="0.75" stroke-width="2.2"/>
<path d="M490 652 C 494 594, 468 570, 482 546 C 494 528, 618 528, 630 546 C 644 570, 610 596, 612 652" fill="#ffffff" fill-opacity="0.10" stroke="#ffffff" stroke-opacity="0.75" stroke-width="2.2"/>
<circle cx="518" cy="524" r="34" fill="#38BDF8" fill-opacity="0.22" filter="url(#soft)"/>
<circle cx="518" cy="524" r="26" fill="none" stroke="#38BDF8" stroke-width="2.6"/>
<path d="M478 524 h14 M544 524 h14 M518 484 v14 M518 550 v14" stroke="#38BDF8" stroke-width="2.6" stroke-linecap="round"/>
<rect x="730" y="290" width="170" height="400" rx="16" fill="#0b0b13" fill-opacity="0.72"/><rect x="730" y="290" width="170" height="400" rx="16" fill="url(#glass)" stroke="#ffffff" stroke-opacity="0.18" stroke-width="1.4"/>
<text x="748" y="324" font-family="'JetBrains Mono', Consolas, 'Courier New', monospace" font-size="13" font-weight="500" fill="#ffffff" fill-opacity="0.6" text-anchor="start" letter-spacing="2">12 FINDINGS</text>
<rect x="748" y="342" width="134" height="10" rx="5.0" fill="#ffffff" fill-opacity="0.12"/>
<rect x="748" y="342" width="123.28" height="10" rx="5.0" fill="#38BDF8" fill-opacity="0.95"/>
<rect x="748" y="370" width="134" height="10" rx="5.0" fill="#ffffff" fill-opacity="0.12"/>
<rect x="748" y="370" width="24.119999999999997" height="10" rx="5.0" fill="#ffffff" fill-opacity="0.4"/>
<rect x="748" y="398" width="134" height="10" rx="5.0" fill="#ffffff" fill-opacity="0.12"/>
<rect x="748" y="398" width="85.76" height="10" rx="5.0" fill="#38BDF8" fill-opacity="0.95"/>
<rect x="748" y="426" width="134" height="10" rx="5.0" fill="#ffffff" fill-opacity="0.12"/>
<rect x="748" y="426" width="12.059999999999999" height="10" rx="5.0" fill="#ffffff" fill-opacity="0.4"/>
<rect x="748" y="454" width="134" height="10" rx="5.0" fill="#ffffff" fill-opacity="0.12"/>
<rect x="748" y="454" width="41.54" height="10" rx="5.0" fill="#ffffff" fill-opacity="0.4"/>
<rect x="748" y="482" width="134" height="10" rx="5.0" fill="#ffffff" fill-opacity="0.12"/>
<rect x="748" y="482" width="103.18" height="10" rx="5.0" fill="#38BDF8" fill-opacity="0.95"/>
<rect x="748" y="510" width="134" height="10" rx="5.0" fill="#ffffff" fill-opacity="0.12"/>
<rect x="748" y="510" width="16.08" height="10" rx="5.0" fill="#ffffff" fill-opacity="0.4"/>
<rect x="748" y="538" width="134" height="10" rx="5.0" fill="#ffffff" fill-opacity="0.12"/>
<rect x="748" y="538" width="6.7" height="10" rx="5.0" fill="#ffffff" fill-opacity="0.4"/>
<rect x="748" y="566" width="134" height="10" rx="5.0" fill="#ffffff" fill-opacity="0.12"/>
<rect x="748" y="566" width="64.32" height="10" rx="5.0" fill="#ffffff" fill-opacity="0.4"/>
<rect x="748" y="594" width="134" height="10" rx="5.0" fill="#ffffff" fill-opacity="0.12"/>
<rect x="748" y="594" width="29.48" height="10" rx="5.0" fill="#ffffff" fill-opacity="0.4"/>
<rect x="748" y="622" width="134" height="10" rx="5.0" fill="#ffffff" fill-opacity="0.12"/>
<rect x="748" y="622" width="115.24" height="10" rx="5.0" fill="#38BDF8" fill-opacity="0.95"/>
<rect x="748" y="650" width="134" height="10" rx="5.0" fill="#ffffff" fill-opacity="0.12"/>
<rect x="748" y="650" width="20.099999999999998" height="10" rx="5.0" fill="#ffffff" fill-opacity="0.4"/>
<rect x="338" y="694" width="193" height="30" rx="15.0" fill="rgba(56,189,248,0.16)" stroke="#38BDF8" stroke-opacity="0.55" stroke-width="1.2"/><text x="434.5" y="714.4" font-family="'JetBrains Mono', Consolas, 'Courier New', monospace" font-size="15" font-weight="600" fill="#38BDF8" fill-opacity="1.0" text-anchor="middle">0.91 macro ROC-AUC</text>
</svg>
